<svg xmlns="http://www.w3.org/2000/svg" width="1920" height="1080"><path d="M-113,-244L103,-251L277,-263Z" fill="#fff3b1" stroke="#fff3b1" stroke-width="1.51"/><path d="M420,1294L133,1338L837,1320Z" fill="#c87246" stroke="#c87246" stroke-width="1.51"/><path d="M1226,-170L1286,-166L1682,-228Z" fill="#ffa16a" stroke="#ffa16a" stroke-width="1.51"/><path d="M1057,-196L1226,-170L1682,-228Z" fill="#ffa66e" stroke="#ffa66e" stroke-width="1.51"/><path d="M680,-249L1057,-196L1682,-228Z" fill="#ffb577" stroke="#ffb577" stroke-width="1.51"/><path d="M837,1320L133,1338L1740,1344Z" fill="#c25434" stroke="#c25434" stroke-width="1.51"/><path d="M1635,1329L1191,1307L1740,1344Z" fill="#b81224" stroke="#b81224" stroke-width="1.51"/><path d="M1191,1307L837,1320L1740,1344Z" fill="#c32c2a" stroke="#c32c2a" stroke-width="1.51"/><path d="M1682,-228L1830,-248L1888,-264Z" fill="#ec946f" stroke="#ec946f" stroke-width="1.51"/><path d="M680,-249L1682,-228L1888,-264Z" fill="#ffa370" stroke="#ffa370" stroke-width="1.51"/><path d="M277,-263L680,-249L1888,-264Z" fill="#ffc681" stroke="#ffc681" stroke-width="1.51"/><path d="M1894,1252L1740,1344L2030,1277Z" fill="#a60026" stroke="#a60026" stroke-width="1.51"/><path d="M2050,191L2047,349L2073,548Z" fill="#ca6338" stroke="#ca6338" stroke-width="1.51"/><path d="M2089,830L1945,954L2121,1041Z" fill="#bc0f23" stroke="#bc0f23" stroke-width="1.51"/><path d="M2050,191L2073,548L2131,742Z" fill="#c65634" stroke="#c65634" stroke-width="1.51"/><path d="M2060,90L2050,191L2131,742Z" fill="#c86539" stroke="#c86539" stroke-width="1.51"/><path d="M2074,-63L2060,90L2131,742Z" fill="#c86d40" stroke="#c86d40" stroke-width="1.51"/><path d="M2073,548L1979,680L2131,742Z" fill="#c83e2d" stroke="#c83e2d" stroke-width="1.51"/><path d="M2089,830L2121,1041L2131,742Z" fill="#ba1b25" stroke="#ba1b25" stroke-width="1.51"/><path d="M2121,1041L1888,1100L2135,1140Z" fill="#af0425" stroke="#af0425" stroke-width="1.51"/><path d="M1888,1100L2030,1277L2135,1140Z" fill="#aa0026" stroke="#aa0026" stroke-width="1.51"/><path d="M2131,742L2121,1041L2135,1140Z" fill="#b20a23" stroke="#b20a23" stroke-width="1.51"/><path d="M1979,680L2089,830L2131,742Z" fill="#c62c29" stroke="#c62c29" stroke-width="1.51"/><path d="M2047,349L1945,528L2073,548Z" fill="#cd5934" stroke="#cd5934" stroke-width="1.51"/><path d="M1930,894L1945,954L2089,830Z" fill="#c61924" stroke="#c61924" stroke-width="1.51"/><path d="M1945,954L1888,1100L2121,1041Z" fill="#bb0824" stroke="#bb0824" stroke-width="1.51"/><path d="M1888,1100L1894,1252L2030,1277Z" fill="#ad0026" stroke="#ad0026" stroke-width="1.51"/><path d="M1889,433L1945,528L2047,349Z" fill="#d45f35" stroke="#d45f35" stroke-width="1.51"/><path d="M1960,244L2047,349L2050,191Z" fill="#cf6e40" stroke="#cf6e40" stroke-width="1.51"/><path d="M1947,-37L2060,90L2074,-63Z" fill="#d28258" stroke="#d28258" stroke-width="1.51"/><path d="M1979,680L1930,894L2089,830Z" fill="#ca2727" stroke="#ca2727" stroke-width="1.51"/><path d="M1973,117L2050,191L2060,90Z" fill="#cf7b4b" stroke="#cf7b4b" stroke-width="1.51"/><path d="M1947,-37L1973,117L2060,90Z" fill="#d48053" stroke="#d48053" stroke-width="1.51"/><path d="M1945,528L1979,680L2073,548Z" fill="#ce4c30" stroke="#ce4c30" stroke-width="1.51"/><path d="M2055,-165L1947,-37L2074,-63Z" fill="#d28660" stroke="#d28660" stroke-width="1.51"/><path d="M1888,-264L1947,-37L2055,-165Z" fill="#db8b66" stroke="#db8b66" stroke-width="1.51"/><path d="M1973,117L1960,244L2050,191Z" fill="#d37747" stroke="#d37747" stroke-width="1.51"/><path d="M1960,244L1889,433L2047,349Z" fill="#d46838" stroke="#d46838" stroke-width="1.51"/><path d="M1824,790L1930,894L1979,680Z" fill="#d42a27" stroke="#d42a27" stroke-width="1.51"/><path d="M1355,1276L1191,1307L1635,1329Z" fill="#c12126" stroke="#c12126" stroke-width="1.51"/><path d="M1286,-166L1452,-158L1682,-228Z" fill="#fe9d68" stroke="#fe9d68" stroke-width="1.51"/><path d="M1888,-264L1830,-248L1947,-37Z" fill="#e38f69" stroke="#e38f69" stroke-width="1.51"/><path d="M1830,-248L1793,-15L1947,-37Z" fill="#e58c61" stroke="#e58c61" stroke-width="1.51"/><path d="M1771,229L1889,433L1960,244Z" fill="#de6f3b" stroke="#de6f3b" stroke-width="1.51"/><path d="M1796,91L1771,229L1960,244Z" fill="#e37c46" stroke="#e37c46" stroke-width="1.51"/><path d="M1796,91L1960,244L1973,117Z" fill="#dd7d49" stroke="#dd7d49" stroke-width="1.51"/><path d="M1947,-37L1796,91L1973,117Z" fill="#df8352" stroke="#df8352" stroke-width="1.51"/><path d="M1826,687L1824,790L1979,680Z" fill="#db362a" stroke="#db362a" stroke-width="1.51"/><path d="M1945,528L1826,687L1979,680Z" fill="#d7472d" stroke="#d7472d" stroke-width="1.51"/><path d="M1804,533L1826,687L1945,528Z" fill="#dd512f" stroke="#dd512f" stroke-width="1.51"/><path d="M1793,-15L1796,91L1947,-37Z" fill="#e58756" stroke="#e58756" stroke-width="1.51"/><path d="M1771,229L1753,413L1889,433Z" fill="#e36c37" stroke="#e36c37" stroke-width="1.51"/><path d="M1748,991L1888,1100L1945,954Z" fill="#ca0a23" stroke="#ca0a23" stroke-width="1.51"/><path d="M1889,433L1804,533L1945,528Z" fill="#dc5b32" stroke="#dc5b32" stroke-width="1.51"/><path d="M1930,894L1748,991L1945,954Z" fill="#cf0f22" stroke="#cf0f22" stroke-width="1.51"/><path d="M1888,1100L1776,1173L1894,1252Z" fill="#bb0026" stroke="#bb0026" stroke-width="1.51"/><path d="M1824,790L1748,991L1930,894Z" fill="#d51d23" stroke="#d51d23" stroke-width="1.51"/><path d="M1682,-228L1793,-15L1830,-248Z" fill="#ed9166" stroke="#ed9166" stroke-width="1.51"/><path d="M1776,1173L1740,1344L1894,1252Z" fill="#b20226" stroke="#b20226" stroke-width="1.51"/><path d="M1748,991L1776,1173L1888,1100Z" fill="#c70724" stroke="#c70724" stroke-width="1.51"/><path d="M1753,413L1804,533L1889,433Z" fill="#e26133" stroke="#e26133" stroke-width="1.51"/><path d="M1678,357L1753,413L1771,229Z" fill="#e87036" stroke="#e87036" stroke-width="1.51"/><path d="M1682,-228L1685,-32L1793,-15Z" fill="#ef905e" stroke="#ef905e" stroke-width="1.51"/><path d="M1662,838L1748,991L1824,790Z" fill="#dc2222" stroke="#dc2222" stroke-width="1.51"/><path d="M1653,684L1824,790L1826,687Z" fill="#e23928" stroke="#e23928" stroke-width="1.51"/><path d="M1804,533L1653,684L1826,687Z" fill="#e34a2b" stroke="#e34a2b" stroke-width="1.51"/><path d="M1679,130L1771,229L1796,91Z" fill="#e98247" stroke="#e98247" stroke-width="1.51"/><path d="M1653,684L1662,838L1824,790Z" fill="#e43125" stroke="#e43125" stroke-width="1.51"/><path d="M1635,1329L1740,1344L1776,1173Z" fill="#b30624" stroke="#b30624" stroke-width="1.51"/><path d="M1748,991L1665,1007L1776,1173Z" fill="#ce0d22" stroke="#ce0d22" stroke-width="1.51"/><path d="M1793,-15L1685,-32L1796,91Z" fill="#eb8a55" stroke="#eb8a55" stroke-width="1.51"/><path d="M1685,-32L1679,130L1796,91Z" fill="#ed884f" stroke="#ed884f" stroke-width="1.51"/><path d="M1753,413L1614,557L1804,533Z" fill="#e75f30" stroke="#e75f30" stroke-width="1.51"/><path d="M1614,557L1653,684L1804,533Z" fill="#e8532c" stroke="#e8532c" stroke-width="1.51"/><path d="M1665,1007L1603,1153L1776,1173Z" fill="#cd0c23" stroke="#cd0c23" stroke-width="1.51"/><path d="M680,-249L846,-203L1057,-196Z" fill="#ffca7f" stroke="#ffca7f" stroke-width="1.51"/><path d="M1662,838L1665,1007L1748,991Z" fill="#db171f" stroke="#db171f" stroke-width="1.51"/><path d="M1612,246L1678,357L1771,229Z" fill="#ec773b" stroke="#ec773b" stroke-width="1.51"/><path d="M1603,1153L1635,1329L1776,1173Z" fill="#c00823" stroke="#c00823" stroke-width="1.51"/><path d="M1679,130L1612,246L1771,229Z" fill="#ed7f42" stroke="#ed7f42" stroke-width="1.51"/><path d="M1678,357L1614,557L1753,413Z" fill="#ea6631" stroke="#ea6631" stroke-width="1.51"/><path d="M1465,1263L1355,1276L1635,1329Z" fill="#bf1724" stroke="#bf1724" stroke-width="1.51"/><path d="M1662,838L1451,879L1665,1007Z" fill="#e3211e" stroke="#e3211e" stroke-width="1.51"/><path d="M1451,879L1475,1016L1665,1007Z" fill="#e21d1d" stroke="#e21d1d" stroke-width="1.51"/><path d="M1540,1091L1603,1153L1665,1007Z" fill="#d41121" stroke="#d41121" stroke-width="1.51"/><path d="M1491,490L1614,557L1678,357Z" fill="#f0662e" stroke="#f0662e" stroke-width="1.51"/><path d="M1476,408L1491,490L1678,357Z" fill="#f36d30" stroke="#f36d30" stroke-width="1.51"/><path d="M1445,119L1679,130L1685,-32Z" fill="#f48b4d" stroke="#f48b4d" stroke-width="1.51"/><path d="M1438,-65L1445,119L1685,-32Z" fill="#fa9254" stroke="#fa9254" stroke-width="1.51"/><path d="M1682,-228L1452,-158L1685,-32Z" fill="#f79562" stroke="#f79562" stroke-width="1.51"/><path d="M1452,-158L1438,-65L1685,-32Z" fill="#fb975c" stroke="#fb975c" stroke-width="1.51"/><path d="M1653,684L1451,879L1662,838Z" fill="#ea3121" stroke="#ea3121" stroke-width="1.51"/><path d="M1445,119L1612,246L1679,130Z" fill="#f58643" stroke="#f58643" stroke-width="1.51"/><path d="M1432,670L1451,879L1653,684Z" fill="#f23d24" stroke="#f23d24" stroke-width="1.51"/><path d="M1612,246L1476,408L1678,357Z" fill="#f17333" stroke="#f17333" stroke-width="1.51"/><path d="M1477,278L1476,408L1612,246Z" fill="#f57936" stroke="#f57936" stroke-width="1.51"/><path d="M1603,1153L1465,1263L1635,1329Z" fill="#c20c22" stroke="#c20c22" stroke-width="1.51"/><path d="M1475,1016L1540,1091L1665,1007Z" fill="#db151f" stroke="#db151f" stroke-width="1.51"/><path d="M1614,557L1432,670L1653,684Z" fill="#f04e27" stroke="#f04e27" stroke-width="1.51"/><path d="M1445,119L1477,278L1612,246Z" fill="#f7843f" stroke="#f7843f" stroke-width="1.51"/><path d="M1491,490L1432,670L1614,557Z" fill="#f35d2b" stroke="#f35d2b" stroke-width="1.51"/><path d="M1540,1091L1465,1263L1603,1153Z" fill="#cf1222" stroke="#cf1222" stroke-width="1.51"/><path d="M1432,670L1374,802L1451,879Z" fill="#f33f24" stroke="#f33f24" stroke-width="1.51"/><path d="M1475,1016L1327,1173L1540,1091Z" fill="#da2122" stroke="#da2122" stroke-width="1.51"/><path d="M1327,1173L1465,1263L1540,1091Z" fill="#d21e24" stroke="#d21e24" stroke-width="1.51"/><path d="M1438,-65L1333,88L1445,119Z" fill="#fe9652" stroke="#fe9652" stroke-width="1.51"/><path d="M1451,879L1330,1020L1475,1016Z" fill="#e72a1f" stroke="#e72a1f" stroke-width="1.51"/><path d="M1330,1020L1327,1173L1475,1016Z" fill="#df2923" stroke="#df2923" stroke-width="1.51"/><path d="M1445,119L1313,269L1477,278Z" fill="#fb8841" stroke="#fb8841" stroke-width="1.51"/><path d="M1321,336L1476,408L1477,278Z" fill="#f87b35" stroke="#f87b35" stroke-width="1.51"/><path d="M1476,408L1287,488L1491,490Z" fill="#f86f31" stroke="#f86f31" stroke-width="1.51"/><path d="M1287,488L1432,670L1491,490Z" fill="#f7672e" stroke="#f7672e" stroke-width="1.51"/><path d="M1348,711L1374,802L1432,670Z" fill="#f74928" stroke="#f74928" stroke-width="1.51"/><path d="M1331,-64L1333,88L1438,-65Z" fill="#ff9b5a" stroke="#ff9b5a" stroke-width="1.51"/><path d="M1327,1173L1355,1276L1465,1263Z" fill="#cb2326" stroke="#cb2326" stroke-width="1.51"/><path d="M1321,336L1287,488L1476,408Z" fill="#fb7835" stroke="#fb7835" stroke-width="1.51"/><path d="M1313,269L1321,336L1477,278Z" fill="#fb833b" stroke="#fb833b" stroke-width="1.51"/><path d="M1333,88L1313,269L1445,119Z" fill="#fd9149" stroke="#fd9149" stroke-width="1.51"/><path d="M1287,488L1348,711L1432,670Z" fill="#f95e2c" stroke="#f95e2c" stroke-width="1.51"/><path d="M1374,802L1330,1020L1451,879Z" fill="#ee3421" stroke="#ee3421" stroke-width="1.51"/><path d="M1331,-64L1438,-65L1452,-158Z" fill="#ff9d61" stroke="#ff9d61" stroke-width="1.51"/><path d="M1286,-166L1331,-64L1452,-158Z" fill="#ffa166" stroke="#ffa166" stroke-width="1.51"/><path d="M1151,809L1202,1034L1330,1020Z" fill="#f03d24" stroke="#f03d24" stroke-width="1.51"/><path d="M1195,206L1313,269L1333,88Z" fill="#ff9348" stroke="#ff9348" stroke-width="1.51"/><path d="M1208,113L1195,206L1333,88Z" fill="#ff9a4e" stroke="#ff9a4e" stroke-width="1.51"/><path d="M1287,488L1129,581L1348,711Z" fill="#fd6930" stroke="#fd6930" stroke-width="1.51"/><path d="M1129,581L1157,704L1348,711Z" fill="#fd622f" stroke="#fd622f" stroke-width="1.51"/><path d="M1348,711L1151,809L1374,802Z" fill="#f94928" stroke="#f94928" stroke-width="1.51"/><path d="M1151,809L1330,1020L1374,802Z" fill="#f33f25" stroke="#f33f25" stroke-width="1.51"/><path d="M1202,1034L1327,1173L1330,1020Z" fill="#e33126" stroke="#e33126" stroke-width="1.51"/><path d="M1156,-44L1208,113L1331,-64Z" fill="#ffa25d" stroke="#ffa25d" stroke-width="1.51"/><path d="M1331,-64L1208,113L1333,88Z" fill="#ff9c56" stroke="#ff9c56" stroke-width="1.51"/><path d="M1157,704L1151,809L1348,711Z" fill="#fc542b" stroke="#fc542b" stroke-width="1.51"/><path d="M1327,1173L1191,1307L1355,1276Z" fill="#cc2b28" stroke="#cc2b28" stroke-width="1.51"/><path d="M1178,430L1287,488L1321,336Z" fill="#fe7d37" stroke="#fe7d37" stroke-width="1.51"/><path d="M1202,1034L1149,1135L1327,1173Z" fill="#e03828" stroke="#e03828" stroke-width="1.51"/><path d="M1286,-166L1226,-170L1331,-64Z" fill="#ffa568" stroke="#ffa568" stroke-width="1.51"/><path d="M1149,1135L1191,1307L1327,1173Z" fill="#d5352a" stroke="#d5352a" stroke-width="1.51"/><path d="M1226,-170L1156,-44L1331,-64Z" fill="#ffa765" stroke="#ffa765" stroke-width="1.51"/><path d="M1313,269L1195,206L1321,336Z" fill="#ff8b40" stroke="#ff8b40" stroke-width="1.51"/><path d="M1195,206L1178,430L1321,336Z" fill="#ff893c" stroke="#ff893c" stroke-width="1.51"/><path d="M1024,1252L837,1320L1191,1307Z" fill="#c84b30" stroke="#c84b30" stroke-width="1.51"/><path d="M1178,430L1129,581L1287,488Z" fill="#fe7a36" stroke="#fe7a36" stroke-width="1.51"/><path d="M1035,867L1034,975L1151,809Z" fill="#f4592b" stroke="#f4592b" stroke-width="1.51"/><path d="M1052,206L1178,430L1195,206Z" fill="#ff9543" stroke="#ff9543" stroke-width="1.51"/><path d="M1151,809L1034,975L1202,1034Z" fill="#f14c27" stroke="#f14c27" stroke-width="1.51"/><path d="M1057,-196L1156,-44L1226,-170Z" fill="#ffb16d" stroke="#ffb16d" stroke-width="1.51"/><path d="M1052,206L1029,445L1178,430Z" fill="#fe923f" stroke="#fe923f" stroke-width="1.51"/><path d="M1149,1135L1024,1252L1191,1307Z" fill="#d2422d" stroke="#d2422d" stroke-width="1.51"/><path d="M1156,-44L1029,128L1208,113Z" fill="#ffa859" stroke="#ffa859" stroke-width="1.51"/><path d="M1052,206L1195,206L1208,113Z" fill="#ff9f4d" stroke="#ff9f4d" stroke-width="1.51"/><path d="M1029,128L1052,206L1208,113Z" fill="#ffa652" stroke="#ffa652" stroke-width="1.51"/><path d="M1034,1087L1149,1135L1202,1034Z" fill="#e4462a" stroke="#e4462a" stroke-width="1.51"/><path d="M1034,975L1034,1087L1202,1034Z" fill="#e94d2a" stroke="#e94d2a" stroke-width="1.51"/><path d="M995,-7L1029,128L1156,-44Z" fill="#ffb060" stroke="#ffb060" stroke-width="1.51"/><path d="M1029,445L1129,581L1178,430Z" fill="#fe8439" stroke="#fe8439" stroke-width="1.51"/><path d="M1029,445L1000,559L1129,581Z" fill="#fd8639" stroke="#fd8639" stroke-width="1.51"/><path d="M995,661L1035,867L1151,809Z" fill="#fb632f" stroke="#fb632f" stroke-width="1.51"/><path d="M1057,-196L995,-7L1156,-44Z" fill="#ffb46a" stroke="#ffb46a" stroke-width="1.51"/><path d="M995,661L1151,809L1157,704Z" fill="#fd652f" stroke="#fd652f" stroke-width="1.51"/><path d="M1129,581L995,661L1157,704Z" fill="#fd7233" stroke="#fd7233" stroke-width="1.51"/><path d="M1034,1087L1024,1252L1149,1135Z" fill="#dd4b2e" stroke="#dd4b2e" stroke-width="1.51"/><path d="M933,425L1029,445L1052,206Z" fill="#fe9a41" stroke="#fe9a41" stroke-width="1.51"/><path d="M1000,559L995,661L1129,581Z" fill="#fd7e37" stroke="#fd7e37" stroke-width="1.51"/><path d="M323,1295L133,1338L420,1294Z" fill="#ca7c50" stroke="#ca7c50" stroke-width="1.51"/><path d="M940,506L1000,559L1029,445Z" fill="#fd8e3c" stroke="#fd8e3c" stroke-width="1.51"/><path d="M891,1159L1024,1252L1034,1087Z" fill="#dc5431" stroke="#dc5431" stroke-width="1.51"/><path d="M995,661L845,793L1035,867Z" fill="#fc6e32" stroke="#fc6e32" stroke-width="1.51"/><path d="M911,188L933,425L1052,206Z" fill="#ffa54a" stroke="#ffa54a" stroke-width="1.51"/><path d="M883,-83L995,-7L1057,-196Z" fill="#ffbd6f" stroke="#ffbd6f" stroke-width="1.51"/><path d="M846,-203L883,-83L1057,-196Z" fill="#ffc377" stroke="#ffc377" stroke-width="1.51"/><path d="M995,-7L889,59L1029,128Z" fill="#ffb65f" stroke="#ffb65f" stroke-width="1.51"/><path d="M1029,128L911,188L1052,206Z" fill="#ffac53" stroke="#ffac53" stroke-width="1.51"/><path d="M1034,975L835,939L1034,1087Z" fill="#ed5d2d" stroke="#ed5d2d" stroke-width="1.51"/><path d="M835,939L891,1159L1034,1087Z" fill="#e75e2f" stroke="#e75e2f" stroke-width="1.51"/><path d="M835,939L1034,975L1035,867Z" fill="#f3612c" stroke="#f3612c" stroke-width="1.51"/><path d="M845,793L835,939L1035,867Z" fill="#f66a30" stroke="#f66a30" stroke-width="1.51"/><path d="M889,59L911,188L1029,128Z" fill="#ffb55a" stroke="#ffb55a" stroke-width="1.51"/><path d="M933,425L940,506L1029,445Z" fill="#fe943f" stroke="#fe943f" stroke-width="1.51"/><path d="M839,681L845,793L995,661Z" fill="#fe7b36" stroke="#fe7b36" stroke-width="1.51"/><path d="M891,1159L837,1320L1024,1252Z" fill="#d05632" stroke="#d05632" stroke-width="1.51"/><path d="M680,1255L420,1294L837,1320Z" fill="#cb673a" stroke="#cb673a" stroke-width="1.51"/><path d="M839,681L995,661L1000,559Z" fill="#fd8138" stroke="#fd8138" stroke-width="1.51"/><path d="M940,506L839,681L1000,559Z" fill="#fd8a3b" stroke="#fd8a3b" stroke-width="1.51"/><path d="M835,939L779,993L891,1159Z" fill="#eb6530" stroke="#eb6530" stroke-width="1.51"/><path d="M883,-83L889,59L995,-7Z" fill="#ffbd68" stroke="#ffbd68" stroke-width="1.51"/><path d="M628,1248L420,1294L680,1255Z" fill="#d06d3e" stroke="#d06d3e" stroke-width="1.51"/><path d="M779,993L788,1130L891,1159Z" fill="#e56432" stroke="#e56432" stroke-width="1.51"/><path d="M911,188L716,271L933,425Z" fill="#feaa4b" stroke="#feaa4b" stroke-width="1.51"/><path d="M716,271L718,436L933,425Z" fill="#fea647" stroke="#fea647" stroke-width="1.51"/><path d="M722,577L839,681L940,506Z" fill="#fe8f3d" stroke="#fe8f3d" stroke-width="1.51"/><path d="M933,425L718,436L940,506Z" fill="#fe9b41" stroke="#fe9b41" stroke-width="1.51"/><path d="M718,436L722,577L940,506Z" fill="#fe9b42" stroke="#fe9b42" stroke-width="1.51"/><path d="M788,1130L837,1320L891,1159Z" fill="#d85e34" stroke="#d85e34" stroke-width="1.51"/><path d="M889,59L768,119L911,188Z" fill="#ffba5c" stroke="#ffba5c" stroke-width="1.51"/><path d="M768,119L716,271L911,188Z" fill="#ffb757" stroke="#ffb757" stroke-width="1.51"/><path d="M883,-83L703,-82L889,59Z" fill="#ffc46d" stroke="#ffc46d" stroke-width="1.51"/><path d="M703,-82L768,119L889,59Z" fill="#ffc368" stroke="#ffc368" stroke-width="1.51"/><path d="M846,-203L703,-82L883,-83Z" fill="#ffc977" stroke="#ffc977" stroke-width="1.51"/><path d="M788,1130L680,1255L837,1320Z" fill="#d36136" stroke="#d36136" stroke-width="1.51"/><path d="M700,822L835,939L845,793Z" fill="#f87433" stroke="#f87433" stroke-width="1.51"/><path d="M839,681L732,742L845,793Z" fill="#fe7c37" stroke="#fe7c37" stroke-width="1.51"/><path d="M680,-249L703,-82L846,-203Z" fill="#ffcf7e" stroke="#ffcf7e" stroke-width="1.51"/><path d="M732,742L700,822L845,793Z" fill="#fc7b36" stroke="#fc7b36" stroke-width="1.51"/><path d="M700,822L779,993L835,939Z" fill="#f47031" stroke="#f47031" stroke-width="1.51"/><path d="M722,577L732,742L839,681Z" fill="#fe893b" stroke="#fe893b" stroke-width="1.51"/><path d="M277,-263L475,-179L680,-249Z" fill="#ffe293" stroke="#ffe293" stroke-width="1.51"/><path d="M703,-82L609,91L768,119Z" fill="#ffc869" stroke="#ffc869" stroke-width="1.51"/><path d="M700,822L594,1007L779,993Z" fill="#f37332" stroke="#f37332" stroke-width="1.51"/><path d="M626,1178L680,1255L788,1130Z" fill="#db6837" stroke="#db6837" stroke-width="1.51"/><path d="M779,993L594,1007L788,1130Z" fill="#ea6d34" stroke="#ea6d34" stroke-width="1.51"/><path d="M594,1007L626,1178L788,1130Z" fill="#e56e36" stroke="#e56e36" stroke-width="1.51"/><path d="M680,-249L617,-179L703,-82Z" fill="#ffd380" stroke="#ffd380" stroke-width="1.51"/><path d="M609,91L716,271L768,119Z" fill="#ffc05d" stroke="#ffc05d" stroke-width="1.51"/><path d="M604,837L594,1007L700,822Z" fill="#f77c37" stroke="#f77c37" stroke-width="1.51"/><path d="M722,577L581,647L732,742Z" fill="#fe903e" stroke="#fe903e" stroke-width="1.51"/><path d="M567,-72L609,91L703,-82Z" fill="#ffcf73" stroke="#ffcf73" stroke-width="1.51"/><path d="M609,91L552,263L716,271Z" fill="#ffc15c" stroke="#ffc15c" stroke-width="1.51"/><path d="M552,263L541,427L716,271Z" fill="#feb752" stroke="#feb752" stroke-width="1.51"/><path d="M716,271L541,427L718,436Z" fill="#feae4a" stroke="#feae4a" stroke-width="1.51"/><path d="M718,436L544,547L722,577Z" fill="#fea245" stroke="#fea245" stroke-width="1.51"/><path d="M604,837L700,822L732,742Z" fill="#fb7f38" stroke="#fb7f38" stroke-width="1.51"/><path d="M581,647L604,837L732,742Z" fill="#ff873c" stroke="#ff873c" stroke-width="1.51"/><path d="M541,427L544,547L718,436Z" fill="#feaa4a" stroke="#feaa4a" stroke-width="1.51"/><path d="M544,547L581,647L722,577Z" fill="#fe9c44" stroke="#fe9c44" stroke-width="1.51"/><path d="M626,1178L628,1248L680,1255Z" fill="#d56a3a" stroke="#d56a3a" stroke-width="1.51"/><path d="M617,-179L567,-72L703,-82Z" fill="#ffd37c" stroke="#ffd37c" stroke-width="1.51"/><path d="M475,-179L617,-179L680,-249Z" fill="#ffd988" stroke="#ffd988" stroke-width="1.51"/><path d="M581,647L407,682L604,837Z" fill="#ff9144" stroke="#ff9144" stroke-width="1.51"/><path d="M420,878L594,1007L604,837Z" fill="#f8813c" stroke="#f8813c" stroke-width="1.51"/><path d="M467,195L552,263L609,91Z" fill="#ffc864" stroke="#ffc864" stroke-width="1.51"/><path d="M567,-72L429,57L609,91Z" fill="#ffd375" stroke="#ffd375" stroke-width="1.51"/><path d="M487,1035L386,1175L626,1178Z" fill="#e47942" stroke="#e47942" stroke-width="1.51"/><path d="M386,1175L420,1294L626,1178Z" fill="#d87644" stroke="#d87644" stroke-width="1.51"/><path d="M594,1007L487,1035L626,1178Z" fill="#e9763c" stroke="#e9763c" stroke-width="1.51"/><path d="M626,1178L420,1294L628,1248Z" fill="#d46f3f" stroke="#d46f3f" stroke-width="1.51"/><path d="M420,878L487,1035L594,1007Z" fill="#f37f3d" stroke="#f37f3d" stroke-width="1.51"/><path d="M407,682L420,878L604,837Z" fill="#fe8e45" stroke="#fe8e45" stroke-width="1.51"/><path d="M475,-179L567,-72L617,-179Z" fill="#ffd985" stroke="#ffd985" stroke-width="1.51"/><path d="M429,57L467,195L609,91Z" fill="#ffd16e" stroke="#ffd16e" stroke-width="1.51"/><path d="M451,416L541,427L552,263Z" fill="#ffb955" stroke="#ffb955" stroke-width="1.51"/><path d="M544,547L407,682L581,647Z" fill="#ffa04a" stroke="#ffa04a" stroke-width="1.51"/><path d="M541,427L451,416L544,547Z" fill="#ffb051" stroke="#ffb051" stroke-width="1.51"/><path d="M475,-179L384,-12L567,-72Z" fill="#ffdc84" stroke="#ffdc84" stroke-width="1.51"/><path d="M384,-12L429,57L567,-72Z" fill="#ffd97d" stroke="#ffd97d" stroke-width="1.51"/><path d="M451,416L383,531L544,547Z" fill="#ffb153" stroke="#ffb153" stroke-width="1.51"/><path d="M383,531L407,682L544,547Z" fill="#ffa851" stroke="#ffa851" stroke-width="1.51"/><path d="M467,195L451,416L552,263Z" fill="#ffc15d" stroke="#ffc15d" stroke-width="1.51"/><path d="M407,682L328,705L420,878Z" fill="#ff984d" stroke="#ff984d" stroke-width="1.51"/><path d="M296,228L316,431L451,416Z" fill="#ffc461" stroke="#ffc461" stroke-width="1.51"/><path d="M296,228L451,416L467,195Z" fill="#fec864" stroke="#fec864" stroke-width="1.51"/><path d="M278,-69L384,-12L475,-179Z" fill="#ffe28b" stroke="#ffe28b" stroke-width="1.51"/><path d="M420,878L293,1035L487,1035Z" fill="#f38644" stroke="#f38644" stroke-width="1.51"/><path d="M293,1035L386,1175L487,1035Z" fill="#e98248" stroke="#e98248" stroke-width="1.51"/><path d="M429,57L296,228L467,195Z" fill="#fed370" stroke="#fed370" stroke-width="1.51"/><path d="M277,-263L278,-69L475,-179Z" fill="#ffe796" stroke="#ffe796" stroke-width="1.51"/><path d="M293,1035L303,1154L386,1175Z" fill="#e6844d" stroke="#e6844d" stroke-width="1.51"/><path d="M328,705L261,842L420,878Z" fill="#ff964e" stroke="#ff964e" stroke-width="1.51"/><path d="M243,92L296,228L429,57Z" fill="#feda79" stroke="#feda79" stroke-width="1.51"/><path d="M316,431L383,531L451,416Z" fill="#ffb95a" stroke="#ffb95a" stroke-width="1.51"/><path d="M383,531L275,582L407,682Z" fill="#ffad57" stroke="#ffad57" stroke-width="1.51"/><path d="M275,582L328,705L407,682Z" fill="#ffa655" stroke="#ffa655" stroke-width="1.51"/><path d="M261,842L293,1035L420,878Z" fill="#f88e4a" stroke="#f88e4a" stroke-width="1.51"/><path d="M386,1175L323,1295L420,1294Z" fill="#d27b4b" stroke="#d27b4b" stroke-width="1.51"/><path d="M384,-12L243,92L429,57Z" fill="#ffdd7f" stroke="#ffdd7f" stroke-width="1.51"/><path d="M278,-69L243,92L384,-12Z" fill="#ffe187" stroke="#ffe187" stroke-width="1.51"/><path d="M303,1154L323,1295L386,1175Z" fill="#da804d" stroke="#da804d" stroke-width="1.51"/><path d="M316,431L275,582L383,531Z" fill="#ffb75c" stroke="#ffb75c" stroke-width="1.51"/><path d="M277,-263L188,-63L278,-69Z" fill="#ffe999" stroke="#ffe999" stroke-width="1.51"/><path d="M261,842L94,980L293,1035Z" fill="#f88f50" stroke="#f88f50" stroke-width="1.51"/><path d="M296,228L128,241L316,431Z" fill="#ffcd6d" stroke="#ffcd6d" stroke-width="1.51"/><path d="M128,241L82,372L316,431Z" fill="#ffcb6e" stroke="#ffcb6e" stroke-width="1.51"/><path d="M303,1154L133,1338L323,1295Z" fill="#d37f53" stroke="#d37f53" stroke-width="1.51"/><path d="M275,582L134,745L328,705Z" fill="#ffa75a" stroke="#ffa75a" stroke-width="1.51"/><path d="M134,745L261,842L328,705Z" fill="#ff9d56" stroke="#ff9d56" stroke-width="1.51"/><path d="M144,846L94,980L261,842Z" fill="#fc9656" stroke="#fc9656" stroke-width="1.51"/><path d="M188,-63L243,92L278,-69Z" fill="#ffe48d" stroke="#ffe48d" stroke-width="1.51"/><path d="M125,593L275,582L316,431Z" fill="#ffb861" stroke="#ffb861" stroke-width="1.51"/><path d="M293,1035L111,1094L303,1154Z" fill="#ea8852" stroke="#ea8852" stroke-width="1.51"/><path d="M82,372L125,593L316,431Z" fill="#ffc069" stroke="#ffc069" stroke-width="1.51"/><path d="M125,593L134,745L275,582Z" fill="#ffad61" stroke="#ffad61" stroke-width="1.51"/><path d="M103,-251L188,-63L277,-263Z" fill="#ffeda3" stroke="#ffeda3" stroke-width="1.51"/><path d="M243,92L128,241L296,228Z" fill="#ffd87a" stroke="#ffd87a" stroke-width="1.51"/><path d="M111,1094L133,1338L303,1154Z" fill="#de8557" stroke="#de8557" stroke-width="1.51"/><path d="M94,980L111,1094L293,1035Z" fill="#f08d56" stroke="#f08d56" stroke-width="1.51"/><path d="M132,99L128,241L243,92Z" fill="#ffde82" stroke="#ffde82" stroke-width="1.51"/><path d="M134,745L144,846L261,842Z" fill="#ff9b58" stroke="#ff9b58" stroke-width="1.51"/><path d="M188,-63L132,99L243,92Z" fill="#ffe28b" stroke="#ffe28b" stroke-width="1.51"/><path d="M-67,-180L-17,-9L103,-251Z" fill="#fff1ab" stroke="#fff1ab" stroke-width="1.51"/><path d="M111,1094L-57,1240L133,1338Z" fill="#da885f" stroke="#da885f" stroke-width="1.51"/><path d="M-17,-9L132,99L188,-63Z" fill="#ffe794" stroke="#ffe794" stroke-width="1.51"/><path d="M103,-251L-17,-9L188,-63Z" fill="#ffeda1" stroke="#ffeda1" stroke-width="1.51"/><path d="M-37,1120L-57,1240L111,1094Z" fill="#e68d63" stroke="#e68d63" stroke-width="1.51"/><path d="M82,372L-46,539L125,593Z" fill="#ffc170" stroke="#ffc170" stroke-width="1.51"/><path d="M17,338L82,372L128,241Z" fill="#ffd177" stroke="#ffd177" stroke-width="1.51"/><path d="M-44,216L128,241L132,99Z" fill="#ffdd84" stroke="#ffdd84" stroke-width="1.51"/><path d="M125,593L33,697L134,745Z" fill="#ffab64" stroke="#ffab64" stroke-width="1.51"/><path d="M134,745L18,796L144,846Z" fill="#ff9f5f" stroke="#ff9f5f" stroke-width="1.51"/><path d="M18,796L94,980L144,846Z" fill="#fe995c" stroke="#fe995c" stroke-width="1.51"/><path d="M-17,-9L-48,52L132,99Z" fill="#ffe896" stroke="#ffe896" stroke-width="1.51"/><path d="M-48,52L-44,216L132,99Z" fill="#ffe48f" stroke="#ffe48f" stroke-width="1.51"/><path d="M-57,1240L-160,1335L133,1338Z" fill="#ce8665" stroke="#ce8665" stroke-width="1.51"/><path d="M33,697L18,796L134,745Z" fill="#ffa463" stroke="#ffa463" stroke-width="1.51"/><path d="M-44,216L17,338L128,241Z" fill="#ffd77f" stroke="#ffd77f" stroke-width="1.51"/><path d="M-46,539L33,697L125,593Z" fill="#ffb66c" stroke="#ffb66c" stroke-width="1.51"/><path d="M18,796L-53,1004L94,980Z" fill="#fb975f" stroke="#fb975f" stroke-width="1.51"/><path d="M94,980L-53,1004L111,1094Z" fill="#f2915d" stroke="#f2915d" stroke-width="1.51"/><path d="M-53,1004L-37,1120L111,1094Z" fill="#ee9161" stroke="#ee9161" stroke-width="1.51"/><path d="M17,338L-46,539L82,372Z" fill="#ffca76" stroke="#ffca76" stroke-width="1.51"/><path d="M-113,-244L-67,-180L103,-251Z" fill="#fff6b6" stroke="#fff6b6" stroke-width="1.51"/><path d="M-213,435L-46,539L17,338Z" fill="#ffcb7d" stroke="#ffcb7d" stroke-width="1.51"/><path d="M-142,975L-53,1004L18,796Z" fill="#fc9a64" stroke="#fc9a64" stroke-width="1.51"/><path d="M-217,841L-142,975L18,796Z" fill="#ff9f6a" stroke="#ff9f6a" stroke-width="1.51"/><path d="M-148,686L18,796L33,697Z" fill="#ffa96b" stroke="#ffa96b" stroke-width="1.51"/><path d="M-46,539L-148,686L33,697Z" fill="#ffb571" stroke="#ffb571" stroke-width="1.51"/><path d="M-48,52L-126,189L-44,216Z" fill="#ffe492" stroke="#ffe492" stroke-width="1.51"/><path d="M-67,-180L-139,-14L-17,-9Z" fill="#fff0a9" stroke="#fff0a9" stroke-width="1.51"/><path d="M-148,686L-217,841L18,796Z" fill="#ffa76f" stroke="#ffa76f" stroke-width="1.51"/><path d="M-44,216L-213,435L17,338Z" fill="#ffd481" stroke="#ffd481" stroke-width="1.51"/><path d="M-168,107L-126,189L-48,52Z" fill="#ffe899" stroke="#ffe899" stroke-width="1.51"/><path d="M-183,569L-148,686L-46,539Z" fill="#ffbc78" stroke="#ffbc78" stroke-width="1.51"/><path d="M-126,189L-213,435L-44,216Z" fill="#ffda8a" stroke="#ffda8a" stroke-width="1.51"/><path d="M-139,-14L-48,52L-17,-9Z" fill="#ffeca1" stroke="#ffeca1" stroke-width="1.51"/><path d="M-142,975L-168,1117L-53,1004Z" fill="#f39669" stroke="#f39669" stroke-width="1.51"/><path d="M-213,435L-183,569L-46,539Z" fill="#ffc67e" stroke="#ffc67e" stroke-width="1.51"/><path d="M-53,1004L-168,1117L-37,1120Z" fill="#ee9367" stroke="#ee9367" stroke-width="1.51"/><path d="M-168,1117L-57,1240L-37,1120Z" fill="#e79069" stroke="#e79069" stroke-width="1.51"/><path d="M-139,-14L-168,107L-48,52Z" fill="#ffeca0" stroke="#ffeca0" stroke-width="1.51"/><path d="M-168,1117L-160,1335L-57,1240Z" fill="#db8d6c" stroke="#db8d6c" stroke-width="1.51"/><path d="M-113,-244L-139,-14L-67,-180Z" fill="#fff5b3" stroke="#fff5b3" stroke-width="1.51"/><path d="M-168,107L-139,-14L-113,-244Z" fill="#fff1ac" stroke="#fff1ac" stroke-width="1.51"/><path d="M-168,107L-213,435L-126,189Z" fill="#ffdf90" stroke="#ffdf90" stroke-width="1.51"/><path d="M-217,841L-168,1117L-142,975Z" fill="#fa9a6c" stroke="#fa9a6c" stroke-width="1.51"/><path d="M-183,569L-217,841L-148,686Z" fill="#ffb277" stroke="#ffb277" stroke-width="1.51"/><path d="M-168,1117L-217,841L-160,1335Z" fill="#ee956e" stroke="#ee956e" stroke-width="1.51"/><path d="M-213,435L-217,841L-183,569Z" fill="#ffbc7d" stroke="#ffbc7d" stroke-width="1.51"/></svg>